# xmcd CD database file
#
# Track frame offsets:
#	150
#	17582
#	68170
#	89886
#	150569
#	187471
#
# Disc length: 3270 seconds
#
# Revision: 1
# Processed by: cddbd v1.5.2PL0 Copyright (c) Steve Scherf et al.
# Submitted via: CDex 1.70beta2
#
DISCID=500cc406
DTITLE=Perujazz - Mundo Nuevo [CD 2)
DYEAR=2007
DGENRE=Jazz
TTITLE0=Humor Negro
TTITLE1=Aires del Norte
TTITLE2=Crofradia Secreta
TTITLE3=Toro Vivop
TTITLE4=Desiertos
TTITLE5=Mundo Nuevo
EXTD=YEAR: 2007
EXTT0=
EXTT1=
EXTT2=
EXTT3=
EXTT4=
EXTT5=
PLAYORDER=
